<?xml version="1.0" encoding="utf-8"?>
<svg xmlns="http://www.w3.org/2000/svg" viewBox="349.3193 285.314 50.9876 75.5352" width="40" height="60">
  <defs>
    <linearGradient gradientUnits="userSpaceOnUse" x1="374.813" y1="285.314" x2="374.813" y2="360.849" id="gradient-0" gradientTransform="matrix(0.999996, -0.002982, 0.003506, 1.175591, -1.263336, -62.244018)">
      <stop offset="0" style="stop-color: rgb(222, 222, 222);"/>
      <stop offset="1" style="stop-color: rgb(0% 0% 0%)"/>
    </linearGradient>
  </defs>
  <path d="M 357.071 332.878 C 353.496 332.922 350.357 335.407 349.528 338.894 C 348.7 342.382 350.4 346 353.496 347.613 C 356.853 349.357 361.125 348.398 363.392 345.259 C 365.615 342.164 365.267 337.892 362.607 335.189 L 373.07 313.783 C 373.724 313.826 374.684 313.87 375.773 313.565 C 377.561 313.172 378.869 311.995 378.869 311.995 C 380.7 312.78 382.618 313.652 384.623 314.655 C 386.716 315.701 388.678 316.791 390.465 317.837 C 390.858 318.055 391.25 318.317 391.686 318.666 C 392.384 319.232 393.168 320.017 393.735 321.063 C 394.563 323.461 392.907 327.559 392.907 327.559 C 391.904 330.873 384.885 345.259 384.885 345.259 C 381.354 345.172 378.215 347.439 377.168 350.709 C 376.035 354.24 377.648 358.251 381.049 359.995 C 384.449 361.739 388.634 360.736 390.858 357.684 C 393.038 354.72 392.863 350.578 390.378 347.831 C 391.206 346.218 391.991 344.605 392.82 342.905 C 394.999 338.371 398.705 329.652 398.705 329.652 C 399.097 328.911 401.19 325.161 399.882 320.366 C 398.792 315.396 394.389 313.085 394.389 313.085 C 389.07 309.641 381.659 306.459 381.659 306.459 C 381.659 306.459 381.659 304.671 381.179 303.363 C 380.7 302.012 379.959 301.14 379.479 300.617 C 381.528 296.388 383.577 292.203 385.626 287.974 C 383.839 287.102 382.095 286.23 380.307 285.314 C 378.215 289.587 376.079 293.903 373.986 298.175 C 371.065 298.132 368.362 299.701 366.967 302.273 C 365.485 305.02 365.79 308.42 367.795 310.905 L 357.071 332.878 Z" style="fill: url(&quot;#gradient-0&quot;);" id="object-0"/>
</svg>