<?xml version="1.0" encoding="utf-8"?>
<svg xmlns="http://www.w3.org/2000/svg" viewBox="180.4602 167.4211 131.4253 183.79" width="131.425px" height="183.79px">
  <defs>
    <linearGradient gradientUnits="userSpaceOnUse" x1="320" y1="64" x2="320" y2="959" id="gradient-0">
      <stop offset="0" style="stop-color: rgb(255, 255, 255);"/>
      <stop offset="1" style="stop-color: rgb(7.4306% 7.4306% 7.4306%)"/>
    </linearGradient>
  </defs>
  <g transform="matrix(0.20535199344158173, 0, 0, 0.20535199344158173, 180.46022033691406, 154.2786102294922)">
    <path d="M512 192c-71 0-128 57-128 128 0 47 26 88 64 110v18c0 64-64 128-128 128-53 0-95 11-128 29v-303c38-22 64-63 64-110 0-71-57-128-128-128s-128 57-128 128c0 47 26 88 64 110v419c-38 22-64 63-64 110 0 71 57 128 128 128s128-57 128-128c0-34-13-64-34-87 19-23 49-41 98-41 128 0 256-128 256-256v-18c38-22 64-63 64-110 0-71-57-128-128-128z m-384-64c35 0 64 29 64 64s-29 64-64 64-64-29-64-64 29-64 64-64z m0 768c-35 0-64-29-64-64s29-64 64-64 64 29 64 64-29 64-64 64z m384-512c-35 0-64-29-64-64s29-64 64-64 64 29 64 64-29 64-64 64z" style="fill: url(&quot;#gradient-0&quot;);"/>
  </g>
</svg>
